
<svg width="1780" height="1006">
<rect x="0" y="0" Width="1780" height="1006" rx="10" ry="10"
 style="fill:silver;stroke:black;stroke-width:2;fill-opacity:1;stroke-opacity:1" />
<text x="542" y="50" style="font-family:verdana;font-size:18px;font-weight:bold;fill:navy">Solar PV Panel Volt Amp Power plot VS Resistance Load</text>
<text x="725" y="90" style="font-family:verdana;font-size:14px;font-weight:bold;fill:navy">DataPlot: AirCon 1 Cycle.csv</text>
<rect x="100" y="100" Width="1550" height="896" rx="5" ry="5"
 style="fill:#e9faff;stroke:black;stroke-width:2" />

<!--  __Graph Grid (Lines)__  -->
<g
   stroke="rgb(130,130,130)"
   stroke-width="0.25"
   stroke-dasharray="4 4"
>

<line x1="152" y1="100" x2="152" y2="996"/>
<line x1="203" y1="100" x2="203" y2="996"/>
<line x1="255" y1="100" x2="255" y2="996"/>
<line x1="307" y1="100" x2="307" y2="996"/>
<line x1="358" y1="100" x2="358" y2="996"/>
<line x1="410" y1="100" x2="410" y2="996"/>
<line x1="462" y1="100" x2="462" y2="996"/>
<line x1="513" y1="100" x2="513" y2="996"/>
<line x1="565" y1="100" x2="565" y2="996"/>
<line x1="617" y1="100" x2="617" y2="996"/>
<line x1="668" y1="100" x2="668" y2="996"/>
<line x1="720" y1="100" x2="720" y2="996"/>
<line x1="772" y1="100" x2="772" y2="996"/>
<line x1="823" y1="100" x2="823" y2="996"/>
<line x1="875" y1="100" x2="875" y2="996"/>
<line x1="927" y1="100" x2="927" y2="996"/>
<line x1="978" y1="100" x2="978" y2="996"/>
<line x1="1030" y1="100" x2="1030" y2="996"/>
<line x1="1082" y1="100" x2="1082" y2="996"/>
<line x1="1133" y1="100" x2="1133" y2="996"/>
<line x1="1185" y1="100" x2="1185" y2="996"/>
<line x1="1237" y1="100" x2="1237" y2="996"/>
<line x1="1288" y1="100" x2="1288" y2="996"/>
<line x1="1340" y1="100" x2="1340" y2="996"/>
<line x1="1392" y1="100" x2="1392" y2="996"/>
<line x1="1443" y1="100" x2="1443" y2="996"/>
<line x1="1495" y1="100" x2="1495" y2="996"/>
<line x1="1547" y1="100" x2="1547" y2="996"/>
<line x1="1598" y1="100" x2="1598" y2="996"/>
<line x1="100" y1="145" x2="1650" y2="145"/>
<line x1="100" y1="190" x2="1650" y2="190"/>
<line x1="100" y1="234" x2="1650" y2="234"/>
<line x1="100" y1="279" x2="1650" y2="279"/>
<line x1="100" y1="324" x2="1650" y2="324"/>
<line x1="100" y1="369" x2="1650" y2="369"/>
<line x1="100" y1="414" x2="1650" y2="414"/>
<line x1="100" y1="458" x2="1650" y2="458"/>
<line x1="100" y1="503" x2="1650" y2="503"/>
<line x1="100" y1="548" x2="1650" y2="548"/>
<line x1="100" y1="593" x2="1650" y2="593"/>
<line x1="100" y1="638" x2="1650" y2="638"/>
<line x1="100" y1="682" x2="1650" y2="682"/>
<line x1="100" y1="727" x2="1650" y2="727"/>
<line x1="100" y1="772" x2="1650" y2="772"/>
<line x1="100" y1="817" x2="1650" y2="817"/>
<line x1="100" y1="862" x2="1650" y2="862"/>
<line x1="100" y1="906" x2="1650" y2="906"/>
<line x1="100" y1="951" x2="1650" y2="951"/>
</g>

<!--  __Graph Ticks (Lines)__  -->
<g
   stroke="rgb(0,0,0)"
   stroke-width="0.5"
>

<line x1="100" y1="996" x2="100" y2="1006"/>
<line x1="152" y1="996" x2="152" y2="1006"/>
<line x1="203" y1="996" x2="203" y2="1006"/>
<line x1="255" y1="996" x2="255" y2="1006"/>
<line x1="307" y1="996" x2="307" y2="1006"/>
<line x1="358" y1="996" x2="358" y2="1006"/>
<line x1="410" y1="996" x2="410" y2="1006"/>
<line x1="462" y1="996" x2="462" y2="1006"/>
<line x1="513" y1="996" x2="513" y2="1006"/>
<line x1="565" y1="996" x2="565" y2="1006"/>
<line x1="617" y1="996" x2="617" y2="1006"/>
<line x1="668" y1="996" x2="668" y2="1006"/>
<line x1="720" y1="996" x2="720" y2="1006"/>
<line x1="772" y1="996" x2="772" y2="1006"/>
<line x1="823" y1="996" x2="823" y2="1006"/>
<line x1="875" y1="996" x2="875" y2="1006"/>
<line x1="927" y1="996" x2="927" y2="1006"/>
<line x1="978" y1="996" x2="978" y2="1006"/>
<line x1="1030" y1="996" x2="1030" y2="1006"/>
<line x1="1082" y1="996" x2="1082" y2="1006"/>
<line x1="1133" y1="996" x2="1133" y2="1006"/>
<line x1="1185" y1="996" x2="1185" y2="1006"/>
<line x1="1237" y1="996" x2="1237" y2="1006"/>
<line x1="1288" y1="996" x2="1288" y2="1006"/>
<line x1="1340" y1="996" x2="1340" y2="1006"/>
<line x1="1392" y1="996" x2="1392" y2="1006"/>
<line x1="1443" y1="996" x2="1443" y2="1006"/>
<line x1="1495" y1="996" x2="1495" y2="1006"/>
<line x1="1547" y1="996" x2="1547" y2="1006"/>
<line x1="1598" y1="996" x2="1598" y2="1006"/>
<line x1="1650" y1="996" x2="1650" y2="1006"/>
<line x1="103" y1="100" x2="90" y2="100"/>
<line x1="1650" y1="100" x2="1660" y2="100"/>
<line x1="103" y1="145" x2="90" y2="145"/>
<line x1="1650" y1="145" x2="1660" y2="145"/>
<line x1="103" y1="190" x2="90" y2="190"/>
<line x1="1650" y1="190" x2="1660" y2="190"/>
<line x1="103" y1="234" x2="90" y2="234"/>
<line x1="1650" y1="234" x2="1660" y2="234"/>
<line x1="103" y1="279" x2="90" y2="279"/>
<line x1="1650" y1="279" x2="1660" y2="279"/>
<line x1="103" y1="324" x2="90" y2="324"/>
<line x1="1650" y1="324" x2="1660" y2="324"/>
<line x1="103" y1="369" x2="90" y2="369"/>
<line x1="1650" y1="369" x2="1660" y2="369"/>
<line x1="103" y1="414" x2="90" y2="414"/>
<line x1="1650" y1="414" x2="1660" y2="414"/>
<line x1="103" y1="458" x2="90" y2="458"/>
<line x1="1650" y1="458" x2="1660" y2="458"/>
<line x1="103" y1="503" x2="90" y2="503"/>
<line x1="1650" y1="503" x2="1660" y2="503"/>
<line x1="103" y1="548" x2="90" y2="548"/>
<line x1="1650" y1="548" x2="1660" y2="548"/>
<line x1="103" y1="593" x2="90" y2="593"/>
<line x1="1650" y1="593" x2="1660" y2="593"/>
<line x1="103" y1="638" x2="90" y2="638"/>
<line x1="1650" y1="638" x2="1660" y2="638"/>
<line x1="103" y1="682" x2="90" y2="682"/>
<line x1="1650" y1="682" x2="1660" y2="682"/>
<line x1="103" y1="727" x2="90" y2="727"/>
<line x1="1650" y1="727" x2="1660" y2="727"/>
<line x1="103" y1="772" x2="90" y2="772"/>
<line x1="1650" y1="772" x2="1660" y2="772"/>
<line x1="103" y1="817" x2="90" y2="817"/>
<line x1="1650" y1="817" x2="1660" y2="817"/>
<line x1="103" y1="862" x2="90" y2="862"/>
<line x1="1650" y1="862" x2="1660" y2="862"/>
<line x1="103" y1="906" x2="90" y2="906"/>
<line x1="1650" y1="906" x2="1660" y2="906"/>
<line x1="103" y1="951" x2="90" y2="951"/>
<line x1="1650" y1="951" x2="1660" y2="951"/>
<line x1="103" y1="996" x2="90" y2="996"/>
<line x1="1650" y1="996" x2="1660" y2="996"/>
</g>

<!--  __Graph Tick Values (Text)__  -->
<g
   fill="navy"
   font-size="10px"
   font-weight="normal"
   font-family="arial"
>

<!--       __Y values__       -->
<text x="75" y="994">0</text>
<text x="25" y="994">0</text>
<text x="1660" y="994">0</text>
<text x="75" y="949">15</text>
<text x="25" y="949">0.2</text>
<text x="1660" y="949">35</text>
<text x="75" y="904">30</text>
<text x="25" y="904">0.4</text>
<text x="1660" y="904">70</text>
<text x="75" y="860">45</text>
<text x="25" y="860">0.6</text>
<text x="1660" y="860">105</text>
<text x="75" y="815">60</text>
<text x="25" y="815">0.8</text>
<text x="1660" y="815">140</text>
<text x="75" y="770">75</text>
<text x="25" y="770">1</text>
<text x="1660" y="770">175</text>
<text x="75" y="725">90</text>
<text x="25" y="725">1.2</text>
<text x="1660" y="725">210</text>
<text x="75" y="680">105</text>
<text x="25" y="680">1.4</text>
<text x="1660" y="680">245</text>
<text x="75" y="636">120</text>
<text x="25" y="636">1.6</text>
<text x="1660" y="636">280</text>
<text x="75" y="591">135</text>
<text x="25" y="591">1.8</text>
<text x="1660" y="591">315</text>
<text x="75" y="546">150</text>
<text x="25" y="546">2</text>
<text x="1660" y="546">350</text>
<text x="75" y="501">165</text>
<text x="25" y="501">2.2</text>
<text x="1660" y="501">385</text>
<text x="75" y="456">180</text>
<text x="25" y="456">2.4</text>
<text x="1660" y="456">420</text>
<text x="75" y="412">195</text>
<text x="25" y="412">2.6</text>
<text x="1660" y="412">455</text>
<text x="75" y="367">210</text>
<text x="25" y="367">2.8</text>
<text x="1660" y="367">490</text>
<text x="75" y="322">225</text>
<text x="25" y="322">3</text>
<text x="1660" y="322">525</text>
<text x="75" y="277">240</text>
<text x="25" y="277">3.2</text>
<text x="1660" y="277">560</text>
<text x="75" y="232">255</text>
<text x="25" y="232">3.4</text>
<text x="1660" y="232">595</text>
<text x="75" y="188">270</text>
<text x="25" y="188">3.6</text>
<text x="1660" y="188">630</text>
<text x="75" y="143">285</text>
<text x="25" y="143">3.8</text>
<text x="1660" y="143">665</text>
<text x="75" y="98">300</text>
<text x="25" y="98">4</text>
<text x="1660" y="98">700</text>
<!--      __X values__       -->
<text x="97" y="1016">0</text>
<text x="149" y="1016">21</text>
<text x="200" y="1016">42</text>
<text x="252" y="1016">63</text>
<text x="304" y="1016">84</text>
<text x="355" y="1016">105</text>
<text x="407" y="1016">126</text>
<text x="459" y="1016">147</text>
<text x="510" y="1016">168</text>
<text x="562" y="1016">189</text>
<text x="614" y="1016">210</text>
<text x="665" y="1016">231</text>
<text x="717" y="1016">252</text>
<text x="769" y="1016">273</text>
<text x="820" y="1016">294</text>
<text x="872" y="1016">315</text>
<text x="924" y="1016">336</text>
<text x="975" y="1016">357</text>
<text x="1027" y="1016">378</text>
<text x="1079" y="1016">399</text>
<text x="1130" y="1016">420</text>
<text x="1182" y="1016">441</text>
<text x="1234" y="1016">462</text>
<text x="1285" y="1016">483</text>
<text x="1337" y="1016">504</text>
<text x="1389" y="1016">525</text>
<text x="1440" y="1016">546</text>
<text x="1492" y="1016">567</text>
<text x="1544" y="1016">588</text>
<text x="1595" y="1016">609</text>
<text x="1647" y="1016">630</text>
</g>
<text x="825" y="1036" style="font-family:verdana;font-size:12px;font-weight:bold;fill:navy">Rload</text>

<!--  __Graph ch names(Text) & Anchor(Line)__  -->
<text x="70" y="58" style="font-family:verdana;font-size:14px;font-weight:normal;fill:#0000ff">Vac</text>
<text transform="translate(70,348)rotate(-90)" text-anchor="middle" 
 style="font-family:verdana;font-size:14px;font-weight:normal;fill:#0000ff">Vac</text>
<line x1="75" y1="85" x2="90" y2="85" style="stroke:#0000ff;stroke-width:2" />
<line x1="82" y1="85" x2="82" y2="61" style="stroke:#0000ff;stroke-width:2" />
<text x="20" y="78" style="font-family:verdana;font-size:14px;font-weight:normal;fill:#008000">Amp ac</text>
<text transform="translate(20,348)rotate(-90)" text-anchor="middle" 
 style="font-family:verdana;font-size:14px;font-weight:normal;fill:#008000">Amp ac</text>
<line x1="25" y1="85" x2="40" y2="85" style="stroke:#008000;stroke-width:2" />
<line x1="32" y1="85" x2="32" y2="81" style="stroke:#008000;stroke-width:2" />
<text x="1655" y="58" style="font-family:verdana;font-size:14px;font-weight:normal;fill:#ff0000">pwr W</text>
<text transform="translate(1690,348)rotate(90)" text-anchor="middle" 
 style="font-family:verdana;font-size:14px;font-weight:normal;fill:#ff0000">pwr W</text>
<line x1="1695" y1="85" x2="1710" y2="85" style="stroke:#ff0000;stroke-width:2" />
<line x1="1702" y1="85" x2="1702" y2="61" style="stroke:#ff0000;stroke-width:2" />

<!--  __Graph ch MaxVal (Text)__  -->
<text x="130" y="93" style="font-family:verdana;font-size:12px;font-weight:bold;fill:#0000ff">Max. ch1: 238Vac</text>
<text x="300" y="93" style="font-family:verdana;font-size:12px;font-weight:bold;fill:#008000">Max. ch2: 3A</text>
<text x="1410" y="93" style="font-family:verdana;font-size:12px;font-weight:bold;fill:#ff0000">Max. ch3: 643W</text>

<!--  __Graph Plot lines (PolyLine)__  -->
<polyline points= "100,286 102,286 105,287 107,288 110,287 112,287 115,287 117,287 120,287 122,287 125,287 127,287 130,287 132,287 134,288 137,288 139,288 142,288 144,288 147,288 149,289 152,289 154,289 157,289 159,289 162,288 164,289 166,289 169,287 171,288 174,288 176,286 179,287 181,287 184,288 186,288 189,288 191,288 193,288 196,287 198,288 201,288 203,287 206,288 208,287 211,288 213,287 216,287 218,288 221,288 223,288 225,286 228,286 230,286 233,286 235,286 238,286 240,286 243,286 245,286 248,286 250,286 253,285 255,285 257,285 260,286 262,286 265,287 267,286 270,286 272,286 275,286 277,286 280,286 282,286 285,289 287,289 289,289 292,289 294,290 297,290 299,291 302,291 304,292 307,293 309,294 312,294 314,295 317,296 319,297 321,298 324,299 326,300 329,301 331,301 334,302 336,302 339,303 341,303 344,304 346,305 348,305 351,305 353,305 356,305 358,305 361,305 363,304 366,304 368,305 371,304 373,304 376,304 378,304 380,303 383,303 385,303 388,303 390,303 393,303 395,303 398,303 400,303 403,303 405,303 408,303 410,303 412,303 415,303 417,303 420,303 422,303 425,303 427,303 430,303 432,303 435,303 437,303 440,304 442,304 444,304 447,304 449,304 452,304 454,303 457,303 459,303 462,303 464,303 467,303 469,303 472,304 474,303 476,304 479,304 481,303 484,304 486,304 489,304 491,304 494,304 496,304 499,305 501,305 503,304 506,304 508,305 511,304 513,305 516,305 518,305 521,305 523,305 526,304 528,305 531,305 533,305 535,305 538,305 540,305 543,304 545,304 548,304 550,305 553,305 555,305 558,305 560,305 563,305 565,304 567,304 570,304 572,304 575,304 577,303 580,304 582,303 585,303 587,302 590,301 592,301 595,300 597,300 599,299 602,298 604,298 607,298 609,298 612,298 614,298 617,298 619,298 622,298 624,297 627,297 629,297 631,297 634,297 636,297 639,297 641,297 644,297 646,297 649,297 651,297 654,298 656,297 658,297 661,297 663,297 666,297 668,297 671,297 673,297 676,297 678,298 681,297 683,298 686,297 688,297 690,297 693,297 695,298 698,298 700,297 703,297 705,297 708,297 710,297 713,297 715,297 718,297 720,297 722,297 725,297 727,297 730,296 732,296 735,296 737,297 740,297 742,297 745,297 747,297 750,297 752,297 754,297 757,296 759,297 762,297 764,297 767,297 769,297 772,297 774,297 777,298 779,297 782,297 784,297 786,297 789,297 791,297 794,297 796,297 799,297 801,297 804,297 806,297 809,297 811,297 813,297 816,297 818,297 821,297 823,297 826,297 828,297 831,297 833,297 836,297 838,297 841,297 843,297 845,297 848,296 850,297 853,297 855,297 858,298 860,298 863,298 865,297 868,297 870,297 873,297 875,297 877,297 880,298 882,297 885,297 887,297 890,297 892,297 895,298 897,297 900,297 902,297 905,297 907,297 909,297 912,297 914,297 917,297 919,297 922,297 924,297 927,297 929,297 932,298 934,297 937,297 939,297 941,297 944,297 946,297 949,297 951,297 954,297 956,297 959,297 961,296 964,297 966,298 968,298 971,298 973,298 976,298 978,297 981,297 983,297 986,297 988,297 991,297 993,298 996,297 998,297 1000,297 1003,297 1005,297 1008,297 1010,297 1013,298 1015,297 1018,297 1020,297 1023,297 1025,297 1028,297 1030,297 1032,297 1035,297 1037,297 1040,300 1042,299 1045,299 1047,299 1050,299 1052,299 1055,300 1057,300 1060,300 1062,299 1064,300 1067,299 1069,299 1072,300 1074,300 1077,300 1079,300 1082,300 1084,300 1087,300 1089,300 1092,300 1094,301 1096,300 1099,300 1101,300 1104,300 1106,300 1109,300 1111,300 1114,300 1116,300 1119,300 1121,300 1123,300 1126,300 1128,300 1131,300 1133,300 1136,300 1138,300 1141,300 1143,300 1146,300 1148,299 1151,300 1153,299 1155,300 1158,299 1160,299 1163,300 1165,300 1168,300 1170,300 1173,300 1175,300 1178,300 1180,299 1183,300 1185,300 1187,300 1190,299 1192,300 1195,299 1197,300 1200,300 1202,300 1205,300 1207,300 1210,300 1212,300 1215,300 1217,300 1219,300 1222,300 1224,300 1227,300 1229,300 1232,300 1234,300 1237,300 1239,300 1242,300 1244,300 1247,300 1249,301 1251,301 1254,300 1256,300 1259,300 1261,300 1264,300 1266,300 1269,300 1271,300 1274,300 1276,300 1278,300 1281,300 1283,300 1286,300 1288,300 1291,300 1293,300 1296,300 1298,300 1301,301 1303,301 1306,300 1308,300 1310,300 1313,301 1315,300 1318,300 1320,300 1323,300 1325,300 1328,300 1330,299 1333,298 1335,297 1338,297 1340,297 1342,300 1345,299 1347,300 1350,299 1352,299 1355,300 1357,300 1360,297 1362,297 1365,296 1367,287 1370,287 1372,287 1374,287 1377,289 1379,288 1382,288 1384,289 1387,289 1389,289 1392,287 1394,287 1397,287 1399,287 1402,287 1404,286 1406,287 1409,287 1411,287 1414,287 1416,290 1419,289 1421,289 1424,289 1426,289 1429,289 1431,288 1433,287 1436,287 1438,287 1441,287 1443,287 1446,288 1448,287 1451,290 1453,287 1456,287 1458,287 1461,288 1463,288 1465,287 1468,287 1470,287 1473,289 1475,289 1478,289 1480,289 1483,289 1485,289 1488,287 1490,287 1493,287 1495,287 1497,287 1500,287 1502,287 1505,287 1507,287 1510,287 1512,287 1515,287 1517,288 1520,288 1522,288 1525,288 1527,288 1529,287 1532,288 1534,287 1537,287 1539,287 1542,288 1544,288 1547,288 1549,288 1552,288 1554,288 1557,288 1559,288 1561,288 1564,288 1566,288 1569,288 1571,288 1574,288 1576,287 1579,287 1581,288 1584,287 1586,287 1588,287 1591,287 1593,287 1596,287 1598,287 1601,287 1603,287 1606,287 1608,288 1611,288 1613,288 1616,288 1618,288 1620,288 1623,287 1625,288 1628,288 1630,288 1633,287 1635,287 1638,287 1640,287 1643,288 1645,287"
 style="fill:none;stroke-width:1;stroke-linejoin:round;stroke:#0000ff" />

<polyline points= "100,964 102,964 105,964 107,964 110,963 112,964 115,964 117,964 120,964 122,964 125,963 127,964 130,964 132,964 134,964 137,963 139,964 142,964 144,964 147,963 149,964 152,964 154,964 157,964 159,964 162,964 164,963 166,964 169,964 171,964 174,964 176,963 179,964 181,964 184,964 186,964 189,964 191,964 193,964 196,964 198,964 201,964 203,964 206,963 208,964 211,964 213,964 216,964 218,964 221,964 223,964 225,963 228,964 230,964 233,964 235,964 238,964 240,964 243,950 245,952 248,952 250,952 253,964 255,964 257,964 260,964 262,964 265,964 267,964 270,964 272,953 275,952 277,958 280,964 282,964 285,827 287,852 289,841 292,826 294,792 297,754 299,737 302,708 304,700 307,641 309,611 312,583 314,561 317,531 319,502 321,469 324,447 326,422 329,399 331,378 334,367 336,356 339,352 341,327 344,319 346,312 348,306 351,299 353,298 356,298 358,298 361,304 363,308 366,310 368,311 371,313 373,315 376,318 378,319 380,320 383,323 385,324 388,325 390,327 393,328 395,328 398,329 400,329 403,332 405,332 408,334 410,335 412,334 415,335 417,334 420,333 422,328 425,333 427,332 430,332 432,333 435,331 437,331 440,328 442,330 444,330 447,328 449,328 452,329 454,328 457,331 459,332 462,332 464,331 467,332 469,333 472,331 474,331 476,329 479,328 481,327 484,328 486,328 489,328 491,325 494,325 496,326 499,325 501,324 503,325 506,325 508,328 511,327 513,327 516,327 518,326 521,326 523,329 526,327 528,328 531,328 533,328 535,327 538,328 540,329 543,328 545,329 548,327 550,326 553,325 555,324 558,325 560,326 563,325 565,326 567,326 570,327 572,326 575,328 577,330 580,330 582,349 585,363 587,386 590,404 592,419 595,440 597,449 599,474 602,495 604,512 607,518 609,521 612,522 614,525 617,522 619,527 622,527 624,529 627,532 629,532 631,533 634,533 636,534 639,534 641,533 644,533 646,535 649,535 651,535 654,535 656,535 658,534 661,534 663,535 666,534 668,534 671,536 673,536 676,535 678,534 681,534 683,533 686,533 688,533 690,533 693,532 695,532 698,532 700,530 703,531 705,531 708,530 710,529 713,529 715,523 718,528 720,528 722,526 725,527 727,527 730,528 732,526 735,526 737,527 740,526 742,526 745,526 747,526 750,527 752,526 754,525 757,525 759,524 762,523 764,523 767,523 769,523 772,523 774,523 777,523 779,517 782,523 784,524 786,523 789,523 791,523 794,525 796,525 799,526 801,526 804,525 806,526 809,526 811,526 813,526 816,527 818,527 821,528 823,527 826,527 828,528 831,528 833,529 836,529 838,529 841,529 843,529 845,530 848,530 850,530 853,530 855,530 858,529 860,530 863,530 865,529 868,530 870,528 873,529 875,528 877,524 880,527 882,527 885,527 887,527 890,526 892,526 895,526 897,526 900,526 902,526 905,527 907,529 909,529 912,529 914,529 917,529 919,529 922,529 924,529 927,528 929,530 932,530 934,530 937,529 939,530 941,526 944,529 946,530 949,529 951,529 954,528 956,529 959,529 961,529 964,529 966,528 968,529 971,528 973,524 976,528 978,528 981,528 983,528 986,528 988,528 991,529 993,529 996,528 998,528 1000,528 1003,528 1005,525 1008,522 1010,526 1013,525 1015,525 1018,525 1020,524 1023,524 1025,525 1028,524 1030,524 1032,525 1035,526 1037,526 1040,526 1042,529 1045,529 1047,530 1050,530 1052,531 1055,531 1057,531 1060,530 1062,529 1064,529 1067,530 1069,528 1072,529 1074,526 1077,526 1079,525 1082,524 1084,524 1087,523 1089,523 1092,521 1094,522 1096,523 1099,524 1101,523 1104,518 1106,522 1109,523 1111,524 1114,525 1116,526 1119,525 1121,525 1123,529 1126,529 1128,530 1131,529 1133,528 1136,529 1138,529 1141,529 1143,526 1146,526 1148,525 1151,526 1153,527 1155,526 1158,527 1160,525 1163,526 1165,526 1168,520 1170,525 1173,524 1175,524 1178,525 1180,525 1183,524 1185,525 1187,525 1190,525 1192,525 1195,526 1197,525 1200,525 1202,524 1205,524 1207,524 1210,525 1212,524 1215,524 1217,524 1219,524 1222,523 1224,523 1227,523 1229,523 1232,523 1234,523 1237,524 1239,524 1242,524 1244,524 1247,525 1249,525 1251,526 1254,526 1256,527 1259,528 1261,528 1264,528 1266,529 1269,529 1271,529 1274,529 1276,529 1278,528 1281,529 1283,529 1286,528 1288,529 1291,529 1293,528 1296,527 1298,528 1301,528 1303,528 1306,528 1308,529 1310,529 1313,529 1315,529 1318,528 1320,528 1323,527 1325,527 1328,527 1330,526 1333,527 1335,529 1338,530 1340,531 1342,529 1345,530 1347,530 1350,530 1352,529 1355,529 1357,529 1360,530 1362,531 1365,531 1367,913 1370,941 1372,949 1374,941 1377,944 1379,944 1382,944 1384,944 1387,944 1389,944 1392,944 1394,944 1397,944 1399,944 1402,944 1404,944 1406,944 1409,944 1411,944 1414,944 1416,944 1419,944 1421,944 1424,943 1426,944 1429,942 1431,944 1433,944 1436,944 1438,943 1441,944 1443,944 1446,943 1448,944 1451,944 1453,944 1456,944 1458,944 1461,944 1463,963 1465,963 1468,964 1470,964 1473,964 1475,964 1478,964 1480,964 1483,964 1485,964 1488,963 1490,964 1493,964 1495,964 1497,964 1500,964 1502,964 1505,964 1507,964 1510,964 1512,964 1515,964 1517,964 1520,964 1522,964 1525,964 1527,964 1529,964 1532,964 1534,964 1537,964 1539,964 1542,964 1544,964 1547,964 1549,964 1552,964 1554,964 1557,964 1559,964 1561,964 1564,964 1566,964 1569,964 1571,964 1574,964 1576,964 1579,964 1581,964 1584,964 1586,964 1588,964 1591,964 1593,964 1596,964 1598,964 1601,964 1603,964 1606,964 1608,964 1611,953 1613,953 1616,953 1618,963 1620,964 1623,964 1625,964 1628,964 1630,964 1633,964 1635,964 1638,964 1640,953 1643,955 1645,964"
 style="fill:none;stroke-width:1;stroke-linejoin:round;stroke:#008000" />

<polyline points= "100,975 102,975 105,975 107,976 110,975 112,976 115,975 117,975 120,975 122,975 125,975 127,976 130,975 132,976 134,976 137,975 139,976 142,975 144,976 147,976 149,976 152,976 154,976 157,975 159,976 162,975 164,976 166,975 169,975 171,975 174,975 176,975 179,976 181,976 184,976 186,976 189,976 191,976 193,976 196,975 198,976 201,975 203,976 206,976 208,976 211,976 213,975 216,976 218,976 221,976 223,976 225,975 228,975 230,975 233,975 235,976 238,975 240,975 243,975 245,966 248,966 250,966 253,973 255,975 257,975 260,975 262,976 265,976 267,975 270,976 272,973 275,966 277,967 280,976 282,975 285,960 287,856 289,848 292,844 294,811 297,777 299,744 302,717 304,702 307,676 309,634 312,600 314,565 317,529 319,491 321,453 324,434 326,426 329,331 331,291 334,282 336,269 339,256 341,230 344,209 346,199 348,194 351,184 353,177 356,175 358,173 361,184 363,190 366,194 368,196 371,198 373,201 376,203 378,205 380,210 383,211 385,213 388,214 390,217 393,219 395,220 398,221 400,222 403,223 405,225 408,226 410,228 412,229 415,228 417,227 420,226 422,221 425,227 427,227 430,225 432,225 435,225 437,224 440,223 442,220 444,222 447,221 449,220 452,223 454,221 457,223 459,225 462,227 464,226 467,225 469,226 472,224 474,224 476,223 479,221 481,220 484,220 486,219 489,218 491,218 494,217 496,216 499,217 501,217 503,215 506,215 508,219 511,219 513,220 516,221 518,221 521,216 523,222 526,221 528,220 531,220 533,220 535,221 538,221 540,221 543,221 545,220 548,219 550,218 553,218 555,217 558,217 560,217 563,217 565,217 567,217 570,219 572,219 575,222 577,222 580,228 582,232 585,259 587,292 590,323 592,352 595,356 597,395 599,438 602,467 604,494 607,499 609,503 612,506 614,509 617,508 619,504 622,513 624,513 627,517 629,519 631,520 634,521 636,521 639,521 641,521 644,521 646,521 649,522 651,512 654,522 656,523 658,523 661,523 663,523 666,522 668,522 671,522 673,522 676,522 678,522 681,521 683,511 686,521 688,521 690,520 693,519 695,519 698,518 700,518 703,518 705,517 708,516 710,516 713,515 715,507 718,514 720,514 722,513 725,512 727,512 730,512 732,511 735,511 737,511 740,511 742,512 745,512 747,511 750,511 752,511 754,510 757,510 759,509 762,508 764,508 767,508 769,507 772,507 774,507 777,507 779,496 782,505 784,507 786,507 789,508 791,507 794,508 796,509 799,509 801,510 804,510 806,511 809,511 811,511 813,507 816,513 818,513 821,513 823,513 826,513 828,513 831,514 833,514 836,515 838,515 841,515 843,515 845,512 848,516 850,516 853,516 855,517 858,516 860,516 863,516 865,516 868,515 870,515 873,515 875,514 877,514 880,514 882,513 885,513 887,512 890,512 892,512 895,512 897,512 900,511 902,512 905,511 907,513 909,513 912,514 914,514 917,514 919,515 922,515 924,515 927,515 929,515 932,516 934,516 937,516 939,516 941,510 944,511 946,515 949,515 951,515 954,515 956,515 959,515 961,515 964,515 966,515 968,515 971,515 973,508 976,510 978,514 981,513 983,514 986,514 988,515 991,514 993,515 996,515 998,514 1000,514 1003,512 1005,512 1008,508 1010,511 1013,511 1015,510 1018,509 1020,509 1023,509 1025,509 1028,509 1030,509 1032,511 1035,511 1037,512 1040,509 1042,514 1045,516 1047,517 1050,517 1052,519 1055,519 1057,519 1060,519 1062,518 1064,518 1067,517 1069,516 1072,516 1074,514 1077,513 1079,512 1082,511 1084,511 1087,509 1089,509 1092,508 1094,508 1096,508 1099,508 1101,508 1104,508 1106,505 1109,508 1111,509 1114,510 1116,511 1119,513 1121,515 1123,516 1126,516 1128,517 1131,516 1133,517 1136,516 1138,515 1141,514 1143,514 1146,513 1148,512 1151,513 1153,513 1155,512 1158,512 1160,512 1163,512 1165,512 1168,511 1170,510 1173,510 1175,511 1178,511 1180,510 1183,510 1185,511 1187,511 1190,511 1192,511 1195,511 1197,511 1200,505 1202,505 1205,511 1207,510 1210,511 1212,510 1215,510 1217,510 1219,511 1222,510 1224,510 1227,509 1229,509 1232,508 1234,509 1237,510 1239,510 1242,510 1244,511 1247,512 1249,512 1251,513 1254,513 1256,514 1259,515 1261,515 1264,516 1266,516 1269,516 1271,516 1274,516 1276,516 1278,516 1281,515 1283,515 1286,515 1288,515 1291,515 1293,515 1296,515 1298,515 1301,515 1303,515 1306,515 1308,515 1310,516 1313,516 1315,516 1318,515 1320,515 1323,514 1325,514 1328,513 1330,512 1333,507 1335,514 1338,514 1340,516 1342,518 1345,517 1347,517 1350,517 1352,516 1355,516 1357,516 1360,515 1362,514 1365,514 1367,920 1370,950 1372,961 1374,960 1377,953 1379,956 1382,956 1384,955 1387,955 1389,955 1392,955 1394,955 1397,955 1399,955 1402,955 1404,955 1406,955 1409,955 1411,955 1414,957 1416,957 1419,955 1421,955 1424,955 1426,955 1429,955 1431,955 1433,955 1436,955 1438,955 1441,955 1443,955 1446,955 1448,955 1451,955 1453,955 1456,955 1458,955 1461,955 1463,955 1465,963 1468,975 1470,975 1473,976 1475,976 1478,976 1480,975 1483,975 1485,976 1488,975 1490,975 1493,975 1495,975 1497,976 1500,975 1502,975 1505,975 1507,976 1510,975 1512,975 1515,975 1517,975 1520,976 1522,976 1525,975 1527,975 1529,975 1532,975 1534,975 1537,975 1539,975 1542,976 1544,975 1547,975 1549,976 1552,975 1554,975 1557,976 1559,976 1561,976 1564,975 1566,975 1569,975 1571,975 1574,975 1576,975 1579,975 1581,976 1584,975 1586,975 1588,975 1591,976 1593,975 1596,975 1598,975 1601,975 1603,976 1606,975 1608,975 1611,965 1613,966 1616,966 1618,969 1620,975 1623,975 1625,976 1628,975 1630,976 1633,975 1635,975 1638,975 1640,976 1643,966 1645,975"
 style="fill:none;stroke-width:1;stroke-linejoin:round;stroke:#ff0000" />

</svg>

